<svg width="18" height="18" viewBox="0 0 18 18" fill="none" xmlns="http://www.w3.org/2000/svg">
<circle cx="9" cy="9" r="9" fill="#525252"/>
<g clip-path="url(#clip0_126_51)">
<path d="M7.75 4.174C7.81101 4.24814 7.84838 4.33886 7.8573 4.43446C7.86621 4.53005 7.84625 4.62612 7.8 4.71025C7.43866 5.37368 7.24996 6.11731 7.25125 6.87275C7.25125 9.38588 9.3 11.4209 11.825 11.4209C12.1544 11.4209 12.475 11.3865 12.7831 11.3209C12.8776 11.3004 12.976 11.3082 13.066 11.3434C13.156 11.3785 13.2337 11.4394 13.2894 11.5184C13.3481 11.6005 13.3781 11.6998 13.3746 11.8007C13.3711 11.9017 13.3343 11.9986 13.27 12.0765C12.7798 12.6787 12.1614 13.1638 11.4599 13.4966C10.7584 13.8294 9.99145 14.0015 9.215 14.0003C6.33375 14.0003 4 11.679 4 8.819C4 6.6665 5.32125 4.82025 7.2025 4.03775C7.29621 3.99815 7.40024 3.99002 7.49897 4.01459C7.59769 4.03916 7.68578 4.0951 7.75 4.174ZM7.03625 4.81963C6.31288 5.20765 5.70815 5.78441 5.28633 6.48861C4.86452 7.19281 4.64138 7.99813 4.64062 8.819C4.64062 11.3315 6.69 13.3665 9.215 13.3665C9.81965 13.3676 10.4185 13.2487 10.9769 13.0167C11.5353 12.7848 12.0422 12.4444 12.4681 12.0153C12.2575 12.0415 12.0431 12.0546 11.825 12.0546C8.94375 12.0546 6.61063 9.73338 6.61063 6.87338C6.61063 6.144 6.76187 5.44963 7.03625 4.81963Z" fill="#E5E5E5"/>
<path d="M10.7463 5.96806C10.7552 5.941 10.7725 5.91744 10.7956 5.90075C10.8187 5.88405 10.8465 5.87507 10.875 5.87507C10.9035 5.87507 10.9313 5.88405 10.9544 5.90075C10.9775 5.91744 10.9948 5.941 11.0038 5.96806L11.2456 6.69431C11.3538 7.01806 11.6075 7.27181 11.9313 7.37994L12.6575 7.62181C12.6846 7.63077 12.7081 7.64804 12.7248 7.67115C12.7415 7.69426 12.7505 7.72205 12.7505 7.75056C12.7505 7.77907 12.7415 7.80686 12.7248 7.82997C12.7081 7.85308 12.6846 7.87035 12.6575 7.87931L11.9313 8.12119C11.7716 8.17438 11.6265 8.26404 11.5075 8.38305C11.3885 8.50205 11.2988 8.64714 11.2456 8.80681L11.0038 9.53306C10.9948 9.56013 10.9775 9.58368 10.9544 9.60037C10.9313 9.61707 10.9035 9.62605 10.875 9.62605C10.8465 9.62605 10.8187 9.61707 10.7956 9.60037C10.7725 9.58368 10.7552 9.56013 10.7463 9.53306L10.5044 8.80681C10.4512 8.64714 10.3615 8.50205 10.2425 8.38305C10.1235 8.26404 9.97843 8.17438 9.81875 8.12119L9.0925 7.87931C9.06544 7.87035 9.04188 7.85308 9.02519 7.82997C9.0085 7.80686 8.99951 7.77907 8.99951 7.75056C8.99951 7.72205 9.0085 7.69426 9.02519 7.67115C9.04188 7.64804 9.06544 7.63077 9.0925 7.62181L9.81875 7.37994C9.97843 7.32674 10.1235 7.23708 10.2425 7.11808C10.3615 6.99907 10.4512 6.85398 10.5044 6.69431L10.7463 5.96806ZM12.6644 4.06244C12.6705 4.04464 12.6821 4.02921 12.6975 4.01829C12.7128 4.00737 12.7312 4.0015 12.75 4.0015C12.7688 4.0015 12.7872 4.00737 12.8026 4.01829C12.8179 4.02921 12.8295 4.04464 12.8356 4.06244L12.9969 4.54619C13.0688 4.76244 13.2381 4.93181 13.4544 5.00369L13.9381 5.16494C13.9559 5.17111 13.9714 5.18267 13.9823 5.19801C13.9932 5.21336 13.9991 5.23173 13.9991 5.25056C13.9991 5.2694 13.9932 5.28776 13.9823 5.30311C13.9714 5.31846 13.9559 5.33002 13.9381 5.33619L13.4544 5.49744C13.3478 5.53289 13.251 5.5927 13.1716 5.67211C13.0921 5.75153 13.0323 5.84837 12.9969 5.95494L12.8356 6.43869C12.8295 6.45648 12.8179 6.47191 12.8026 6.48284C12.7872 6.49376 12.7688 6.49963 12.75 6.49963C12.7312 6.49963 12.7128 6.49376 12.6975 6.48284C12.6821 6.47191 12.6705 6.45648 12.6644 6.43869L12.5031 5.95494C12.4677 5.84837 12.4079 5.75153 12.3285 5.67211C12.249 5.5927 12.1522 5.53289 12.0456 5.49744L11.5619 5.33619C11.5441 5.33002 11.5287 5.31846 11.5177 5.30311C11.5068 5.28776 11.5009 5.2694 11.5009 5.25056C11.5009 5.23173 11.5068 5.21336 11.5177 5.19801C11.5287 5.18267 11.5441 5.17111 11.5619 5.16494L12.0456 5.00369C12.2619 4.93181 12.4313 4.76244 12.5031 4.54619L12.6644 4.06306V4.06244Z" fill="#E5E5E5"/>
</g>
<defs>
<clipPath id="clip0_126_51">
<rect width="10" height="10" fill="white" transform="translate(4 4)"/>
</clipPath>
</defs>
</svg>
