<svg width="18" height="18" viewBox="0 0 18 18" fill="none" xmlns="http://www.w3.org/2000/svg">
<circle cx="9" cy="9" r="9" fill="white"/>
<g clip-path="url(#clip0_126_52)">
<path d="M8.8118 8.5C9.131 8.49996 9.44702 8.56343 9.74145 8.68671C10.0359 8.81 10.3028 8.99063 10.5268 9.21809C10.7507 9.44555 10.9272 9.7153 11.0459 10.0116C11.1645 10.3079 11.2231 10.6249 11.2181 10.9441C11.2172 10.9969 11.2286 11.0492 11.2513 11.0969C11.274 11.1447 11.3074 11.1865 11.3489 11.2192C11.3904 11.252 11.4389 11.2747 11.4906 11.2856C11.5423 11.2966 11.5959 11.2954 11.6471 11.2823C11.7995 11.2433 11.9588 11.2395 12.1129 11.2714C12.267 11.3033 12.4118 11.37 12.5362 11.4664C12.6606 11.5627 12.7614 11.6862 12.8308 11.8274C12.9002 11.9687 12.9365 12.1239 12.9368 12.2812C12.9368 12.5548 12.8282 12.8171 12.6348 13.0105C12.4414 13.2039 12.1791 13.3125 11.9056 13.3125H6.0618C5.879 13.3115 5.69823 13.274 5.53008 13.2023C5.36193 13.1305 5.20978 13.026 5.08251 12.8948C4.95524 12.7635 4.85542 12.6083 4.78888 12.438C4.72234 12.2677 4.69043 12.0859 4.695 11.9031C4.69957 11.7204 4.74053 11.5404 4.8155 11.3737C4.89047 11.2069 4.99793 11.0568 5.1316 10.9321C5.26527 10.8074 5.42246 10.7106 5.59399 10.6474C5.76551 10.5842 5.94792 10.5558 6.13055 10.5639C6.20977 10.568 6.28795 10.5445 6.35186 10.4975C6.41576 10.4505 6.46145 10.3829 6.48118 10.3061C6.61453 9.78928 6.91581 9.33145 7.33768 9.00453C7.75955 8.67762 8.27809 8.50014 8.8118 8.5ZM11.887 10.5625C11.8096 9.86547 11.4978 9.2154 11.0025 8.71888C10.5072 8.22235 9.85794 7.90883 9.16111 7.82972C8.46428 7.7506 7.76124 7.91059 7.16727 8.28346C6.57329 8.65632 6.12363 9.21993 5.89199 9.88188C5.3612 9.92532 4.86779 10.1724 4.51504 10.5714C4.16229 10.9704 3.97755 11.4904 3.99949 12.0225C4.02144 12.5546 4.24836 13.0576 4.63276 13.4262C5.01716 13.7948 5.52924 14.0004 6.0618 14H11.9056C12.3614 14 12.7986 13.8189 13.1209 13.4966C13.4432 13.1743 13.6243 12.7371 13.6243 12.2812C13.6243 11.8254 13.4432 11.3882 13.1209 11.0659C12.7986 10.7436 12.3614 10.5625 11.9056 10.5625H11.887Z" fill="#00B6A0"/>
<path d="M11.2188 4.03125C11.2188 3.94008 11.1825 3.85265 11.1181 3.78818C11.0536 3.72372 10.9662 3.6875 10.875 3.6875C10.7838 3.6875 10.6964 3.72372 10.6319 3.78818C10.5675 3.85265 10.5313 3.94008 10.5313 4.03125V4.71875C10.5313 4.80992 10.5675 4.89735 10.6319 4.96182C10.6964 5.02628 10.7838 5.0625 10.875 5.0625C10.9662 5.0625 11.0536 5.02628 11.1181 4.96182C11.1825 4.89735 11.2188 4.80992 11.2188 4.71875V4.03125ZM13.7921 5.3815C13.8249 5.34979 13.8511 5.31186 13.8691 5.26992C13.8871 5.22798 13.8966 5.18287 13.897 5.13723C13.8974 5.09159 13.8887 5.04632 13.8714 5.00408C13.8541 4.96183 13.8286 4.92345 13.7963 4.89118C13.7641 4.8589 13.7257 4.83338 13.6834 4.81609C13.6412 4.79881 13.5959 4.79011 13.5503 4.79051C13.5046 4.7909 13.4595 4.80039 13.4176 4.8184C13.3756 4.83642 13.3377 4.86261 13.306 4.89544L12.8193 5.3815C12.7547 5.44605 12.7184 5.53359 12.7184 5.62488C12.7184 5.71616 12.7547 5.8037 12.8193 5.86825C12.8838 5.9328 12.9713 5.96906 13.0626 5.96906C13.1539 5.96906 13.2415 5.9328 13.306 5.86825L13.7921 5.3815ZM8.44401 4.89544C8.37918 4.83282 8.29234 4.79817 8.20221 4.79896C8.11208 4.79974 8.02587 4.83589 7.96213 4.89962C7.8984 4.96336 7.86225 5.04958 7.86146 5.13971C7.86068 5.22984 7.89533 5.31667 7.95794 5.3815L8.44401 5.86825C8.47597 5.90021 8.51391 5.92556 8.55567 5.94286C8.59743 5.96016 8.64218 5.96906 8.68738 5.96906C8.73258 5.96906 8.77734 5.96016 8.8191 5.94286C8.86085 5.92556 8.8988 5.90021 8.93076 5.86825C8.96272 5.83629 8.98807 5.79835 9.00537 5.75659C9.02266 5.71483 9.03157 5.67007 9.03157 5.62488C9.03157 5.57968 9.02266 5.53492 9.00537 5.49316C8.98807 5.4514 8.96272 5.41346 8.93076 5.3815L8.44401 4.89544ZM9.63613 7.21506C9.72158 7.03799 9.84401 6.8813 9.99516 6.75556C10.1463 6.62983 10.3227 6.53797 10.5123 6.48619C10.702 6.4344 10.9006 6.42389 11.0946 6.45537C11.2887 6.48685 11.4738 6.55959 11.6374 6.66867C11.8009 6.77776 11.9392 6.92065 12.0429 7.08772C12.1465 7.25478 12.2132 7.44214 12.2382 7.63714C12.2633 7.83215 12.2463 8.03026 12.1883 8.21813C12.1304 8.406 12.0328 8.57925 11.9021 8.72619C12.0389 8.91938 12.1579 9.12631 12.2569 9.34356C12.4899 9.13305 12.6717 8.87212 12.7886 8.58066C12.9054 8.2892 12.9542 7.97491 12.9311 7.66175C12.908 7.34859 12.8138 7.04483 12.6555 6.77363C12.4972 6.50243 12.2791 6.27095 12.0178 6.09683C11.7565 5.92271 11.4589 5.81056 11.1477 5.76892C10.8364 5.72728 10.5198 5.75726 10.2219 5.85656C9.92401 5.95586 9.65273 6.12187 9.42874 6.34193C9.20474 6.56199 9.03395 6.83029 8.92938 7.12637C9.17138 7.13394 9.40788 7.16419 9.63613 7.21506ZM12.7189 10.0159C13.1314 10.1638 13.4923 10.4216 13.7653 10.7529C13.8027 10.7226 13.8333 10.6848 13.8552 10.6419C13.8771 10.599 13.8897 10.5519 13.8922 10.5038C13.8947 10.4557 13.8871 10.4077 13.8699 10.3627C13.8526 10.3177 13.8261 10.2769 13.7921 10.2428L13.306 9.75675C13.257 9.70745 13.1942 9.67417 13.1259 9.66129C13.0576 9.64842 12.987 9.65655 12.9234 9.68463C12.8598 9.7127 12.8062 9.75939 12.7697 9.81854C12.7332 9.87768 12.7155 9.94651 12.7189 10.0159ZM13.9688 7.46875C13.8776 7.46875 13.7902 7.50497 13.7257 7.56943C13.6612 7.6339 13.625 7.72133 13.625 7.8125C13.625 7.90367 13.6612 7.9911 13.7257 8.05557C13.7902 8.12003 13.8776 8.15625 13.9688 8.15625H14.6563C14.7474 8.15625 14.8349 8.12003 14.8993 8.05557C14.9638 7.9911 15 7.90367 15 7.8125C15 7.72133 14.9638 7.6339 14.8993 7.56943C14.8349 7.50497 14.7474 7.46875 14.6563 7.46875H13.9688Z" fill="#00B6A0"/>
</g>
<defs>
<clipPath id="clip0_126_52">
<rect width="11" height="11" fill="white" transform="translate(4 3)"/>
</clipPath>
</defs>
</svg>
