<svg width="67" height="23" viewBox="0 0 67 23" fill="none" xmlns="http://www.w3.org/2000/svg">
<path d="M24.2132 16.6368C27.2963 14.0089 29 11.0312 29 11.0312C29 11.0312 23.5625 1.50968 14.5 1.50968C12.7593 1.51541 11.0382 1.86185 9.44312 2.52762L10.8387 3.86237C12.0122 3.45408 13.2511 3.24378 14.5 3.24087C18.3425 3.24087 21.5307 5.26291 23.867 7.49442C24.9914 8.57414 25.9994 9.75904 26.8758 11.0312C26.7707 11.1819 26.6547 11.3481 26.5223 11.5298C25.9152 12.3608 25.018 13.4688 23.867 14.5681C23.568 14.8537 23.2562 15.1359 22.93 15.4094L24.2132 16.6368Z" fill="#778DA9"/>
<path d="M20.476 13.0671C20.8805 11.9866 20.9554 10.8186 20.692 9.69896C20.4286 8.57936 19.8378 7.5542 18.9883 6.74278C18.1387 5.93136 17.0654 5.36704 15.8932 5.11547C14.721 4.86391 13.4981 4.93546 12.3669 5.32178L13.8585 6.74655C14.5551 6.65133 15.2653 6.71235 15.9329 6.9248C16.6005 7.13725 17.2071 7.49528 17.7047 7.97053C18.2022 8.44577 18.5771 9.02516 18.7995 9.6628C19.0219 10.3004 19.0858 10.9788 18.9861 11.6441L20.476 13.0671ZM15.1418 15.316L16.6317 16.739C15.5004 17.1253 14.2775 17.1969 13.1053 16.9453C11.9331 16.6937 10.8598 16.1294 10.0103 15.318C9.16074 14.5066 8.56991 13.4814 8.30653 12.3618C8.04316 11.2422 8.11806 10.0742 8.52253 8.99364L10.0142 10.4184C9.91452 11.0837 9.97841 11.7621 10.2008 12.3997C10.4233 13.0373 10.7981 13.6167 11.2957 14.092C11.7932 14.5672 12.3999 14.9253 13.0674 15.1377C13.735 15.3502 14.4452 15.4112 15.1418 15.316V15.316Z" fill="#778DA9"/>
<path d="M6.07189 6.65133C5.74564 6.92832 5.43208 7.20878 5.13301 7.49442C4.00862 8.57415 3.00064 9.75904 2.12426 11.0313L2.47769 11.5298C3.08488 12.3608 3.98207 13.4688 5.13301 14.5681C7.46933 16.7996 10.6593 18.8216 14.5 18.8216C15.7978 18.8216 17.0194 18.5914 18.1613 18.1984L19.5569 19.5349C17.9618 20.2006 16.2408 20.547 14.5 20.5528C5.43751 20.5528 0 11.0313 0 11.0313C0 11.0313 1.70194 8.05187 4.78682 5.42565L6.07008 6.65306L6.07189 6.65133ZM24.7334 22.0313L2.98338 1.25693L4.26664 0.03125L26.0167 20.8056L24.7334 22.0313Z" fill="#778DA9"/>
<path d="M44.4601 7.35525V16.0312H42.8401V12.2392H38.7661V16.0312H37.1461V7.35525H38.7661V11.0872H42.8401V7.35525H44.4601ZM48.6122 16.0312H46.9922V7.35525H48.6122V16.0312ZM58.8587 11.6932C58.8587 12.3292 58.7527 12.9132 58.5407 13.4452C58.3287 13.9772 58.0307 14.4352 57.6467 14.8192C57.2627 15.2032 56.8007 15.5012 56.2607 15.7132C55.7207 15.9252 55.1207 16.0312 54.4607 16.0312H51.1547V7.35525H54.4607C55.1207 7.35525 55.7207 7.46325 56.2607 7.67925C56.8007 7.89125 57.2627 8.18925 57.6467 8.57325C58.0307 8.95325 58.3287 9.40925 58.5407 9.94125C58.7527 10.4732 58.8587 11.0572 58.8587 11.6932ZM57.2027 11.6932C57.2027 11.2172 57.1387 10.7912 57.0107 10.4152C56.8867 10.0352 56.7047 9.71525 56.4647 9.45525C56.2287 9.19125 55.9407 8.98925 55.6007 8.84925C55.2647 8.70925 54.8847 8.63925 54.4607 8.63925H52.7747V14.7472H54.4607C54.8847 14.7472 55.2647 14.6772 55.6007 14.5372C55.9407 14.3972 56.2287 14.1972 56.4647 13.9372C56.7047 13.6732 56.8867 13.3532 57.0107 12.9772C57.1387 12.5972 57.2027 12.1692 57.2027 11.6932ZM62.5036 8.63925V11.0452H65.5396V12.2872H62.5036V14.7412H66.3556V16.0312H60.8836V7.35525H66.3556V8.63925H62.5036Z" fill="#778DA9"/>
</svg>
