<svg width="76" height="20" viewBox="0 0 76 20" fill="none" xmlns="http://www.w3.org/2000/svg">
<path d="M29 9.96875C29 9.96875 23.5625 0 14.5 0C5.4375 0 0 9.96875 0 9.96875C0 9.96875 5.4375 19.9375 14.5 19.9375C23.5625 19.9375 29 9.96875 29 9.96875ZM2.12606 9.96875C3.00243 8.63679 4.01041 7.39624 5.13481 6.26581C7.4675 3.9295 10.6575 1.8125 14.5 1.8125C18.3425 1.8125 21.5307 3.9295 23.867 6.26581C24.9914 7.39624 25.9994 8.63679 26.8757 9.96875C26.7706 10.1264 26.6546 10.3004 26.5223 10.4908C25.9151 11.3608 25.0179 12.5208 23.867 13.6717C21.5307 16.008 18.3407 18.125 14.5 18.125C10.6575 18.125 7.46931 16.008 5.133 13.6717C4.00861 12.5412 3.00063 11.3007 2.12425 9.96875H2.12606Z" fill="#778DA9"/>
<path d="M14.5 5.4375C13.2982 5.4375 12.1457 5.91489 11.2959 6.76467C10.4461 7.61444 9.96875 8.76698 9.96875 9.96875C9.96875 11.1705 10.4461 12.323 11.2959 13.1728C12.1457 14.0226 13.2982 14.5 14.5 14.5C15.7018 14.5 16.8543 14.0226 17.7041 13.1728C18.5539 12.323 19.0312 11.1705 19.0312 9.96875C19.0312 8.76698 18.5539 7.61444 17.7041 6.76467C16.8543 5.91489 15.7018 5.4375 14.5 5.4375ZM8.15625 9.96875C8.15625 8.28628 8.82461 6.67272 10.0143 5.48304C11.204 4.29335 12.8175 3.625 14.5 3.625C16.1825 3.625 17.796 4.29335 18.9857 5.48304C20.1754 6.67272 20.8438 8.28628 20.8438 9.96875C20.8438 11.6512 20.1754 13.2648 18.9857 14.4545C17.796 15.6441 16.1825 16.3125 14.5 16.3125C12.8175 16.3125 11.204 15.6441 10.0143 14.4545C8.82461 13.2648 8.15625 11.6512 8.15625 9.96875Z" fill="#778DA9"/>
<path d="M41.7075 7.902C41.6595 7.986 41.6075 8.048 41.5515 8.088C41.4995 8.124 41.4335 8.142 41.3535 8.142C41.2695 8.142 41.1775 8.112 41.0775 8.052C40.9815 7.988 40.8655 7.918 40.7295 7.842C40.5935 7.766 40.4335 7.698 40.2495 7.638C40.0695 7.574 39.8555 7.542 39.6075 7.542C39.3835 7.542 39.1875 7.57 39.0195 7.626C38.8515 7.678 38.7095 7.752 38.5935 7.848C38.4815 7.944 38.3975 8.06 38.3415 8.196C38.2855 8.328 38.2575 8.474 38.2575 8.634C38.2575 8.838 38.3135 9.008 38.4255 9.144C38.5415 9.28 38.6935 9.396 38.8815 9.492C39.0695 9.588 39.2835 9.674 39.5235 9.75C39.7635 9.826 40.0095 9.908 40.2615 9.996C40.5135 10.08 40.7595 10.18 40.9995 10.296C41.2395 10.408 41.4535 10.552 41.6415 10.728C41.8295 10.9 41.9795 11.112 42.0915 11.364C42.2075 11.616 42.2655 11.922 42.2655 12.282C42.2655 12.674 42.1975 13.042 42.0615 13.386C41.9295 13.726 41.7335 14.024 41.4735 14.28C41.2175 14.532 40.9035 14.732 40.5315 14.88C40.1595 15.024 39.7335 15.096 39.2535 15.096C38.9775 15.096 38.7055 15.068 38.4375 15.012C38.1695 14.96 37.9115 14.884 37.6635 14.784C37.4195 14.684 37.1895 14.564 36.9735 14.424C36.7575 14.284 36.5655 14.128 36.3975 13.956L36.8715 13.182C36.9115 13.126 36.9635 13.08 37.0275 13.044C37.0915 13.004 37.1595 12.984 37.2315 12.984C37.3315 12.984 37.4395 13.026 37.5555 13.11C37.6715 13.19 37.8095 13.28 37.9695 13.38C38.1295 13.48 38.3155 13.572 38.5275 13.656C38.7435 13.736 39.0015 13.776 39.3015 13.776C39.7615 13.776 40.1175 13.668 40.3695 13.452C40.6215 13.232 40.7475 12.918 40.7475 12.51C40.7475 12.282 40.6895 12.096 40.5735 11.952C40.4615 11.808 40.3115 11.688 40.1235 11.592C39.9355 11.492 39.7215 11.408 39.4815 11.34C39.2415 11.272 38.9975 11.198 38.7495 11.118C38.5015 11.038 38.2575 10.942 38.0175 10.83C37.7775 10.718 37.5635 10.572 37.3755 10.392C37.1875 10.212 37.0355 9.988 36.9195 9.72C36.8075 9.448 36.7515 9.114 36.7515 8.718C36.7515 8.402 36.8135 8.094 36.9375 7.794C37.0655 7.494 37.2495 7.228 37.4895 6.996C37.7295 6.764 38.0255 6.578 38.3775 6.438C38.7295 6.298 39.1335 6.228 39.5895 6.228C40.1015 6.228 40.5735 6.308 41.0055 6.468C41.4375 6.628 41.8055 6.852 42.1095 7.14L41.7075 7.902ZM51.5874 6.324V15H49.9674V11.208H45.8934V15H44.2734V6.324H45.8934V10.056H49.9674V6.324H51.5874ZM62.3935 10.662C62.3935 11.298 62.2875 11.888 62.0755 12.432C61.8675 12.972 61.5715 13.44 61.1875 13.836C60.8035 14.232 60.3415 14.542 59.8015 14.766C59.2615 14.986 58.6615 15.096 58.0015 15.096C57.3455 15.096 56.7475 14.986 56.2075 14.766C55.6675 14.542 55.2035 14.232 54.8155 13.836C54.4315 13.44 54.1335 12.972 53.9215 12.432C53.7095 11.888 53.6035 11.298 53.6035 10.662C53.6035 10.026 53.7095 9.438 53.9215 8.898C54.1335 8.354 54.4315 7.884 54.8155 7.488C55.2035 7.092 55.6675 6.784 56.2075 6.564C56.7475 6.34 57.3455 6.228 58.0015 6.228C58.4415 6.228 58.8555 6.28 59.2435 6.384C59.6315 6.484 59.9875 6.628 60.3115 6.816C60.6355 7 60.9255 7.226 61.1815 7.494C61.4415 7.758 61.6615 8.054 61.8415 8.382C62.0215 8.71 62.1575 9.066 62.2495 9.45C62.3455 9.834 62.3935 10.238 62.3935 10.662ZM60.7435 10.662C60.7435 10.186 60.6795 9.76 60.5515 9.384C60.4235 9.004 60.2415 8.682 60.0055 8.418C59.7695 8.154 59.4815 7.952 59.1415 7.812C58.8055 7.672 58.4255 7.602 58.0015 7.602C57.5775 7.602 57.1955 7.672 56.8555 7.812C56.5195 7.952 56.2315 8.154 55.9915 8.418C55.7555 8.682 55.5735 9.004 55.4455 9.384C55.3175 9.76 55.2535 10.186 55.2535 10.662C55.2535 11.138 55.3175 11.566 55.4455 11.946C55.5735 12.322 55.7555 12.642 55.9915 12.906C56.2315 13.166 56.5195 13.366 56.8555 13.506C57.1955 13.646 57.5775 13.716 58.0015 13.716C58.4255 13.716 58.8055 13.646 59.1415 13.506C59.4815 13.366 59.7695 13.166 60.0055 12.906C60.2415 12.642 60.4235 12.322 60.5515 11.946C60.6795 11.566 60.7435 11.138 60.7435 10.662ZM75.7791 6.324L73.0851 15H71.6271L69.7311 9.072C69.6791 8.928 69.6311 8.752 69.5871 8.544C69.5631 8.644 69.5391 8.738 69.5151 8.826C69.4911 8.914 69.4651 8.996 69.4371 9.072L67.5231 15H66.0591L63.3711 6.324H64.7211C64.8611 6.324 64.9771 6.358 65.0691 6.426C65.1651 6.49 65.2291 6.578 65.2611 6.69L66.7371 11.88C66.7691 12.008 66.7991 12.148 66.8271 12.3C66.8591 12.448 66.8911 12.604 66.9231 12.768C66.9551 12.6 66.9891 12.442 67.0251 12.294C67.0651 12.146 67.1071 12.008 67.1511 11.88L68.8551 6.69C68.8871 6.598 68.9491 6.514 69.0411 6.438C69.1371 6.362 69.2531 6.324 69.3891 6.324H69.8631C70.0031 6.324 70.1171 6.358 70.2051 6.426C70.2931 6.494 70.3591 6.582 70.4031 6.69L72.1011 11.88C72.1851 12.128 72.2611 12.414 72.3291 12.738C72.3811 12.422 72.4391 12.136 72.5031 11.88L73.9791 6.69C74.0031 6.59 74.0631 6.504 74.1591 6.432C74.2591 6.36 74.3771 6.324 74.5131 6.324H75.7791Z" fill="#778DA9"/>
</svg>
